<svg width="17" height="17" viewBox="0 0 17 17" fill="none" xmlns="http://www.w3.org/2000/svg">
<path d="M12.031 8.19083C12.221 8.38588 12.22 8.69712 12.0287 8.89094L6.34307 14.6524C6.15231 14.8457 5.84213 14.8513 5.64441 14.6652L4.92152 13.9845C4.71526 13.7902 4.71142 13.4636 4.91306 13.2646L8.68457 9.54199L1.5 9.54199C1.22386 9.54199 1 9.31813 1 9.04199L1 8.04199C1 7.76585 1.22386 7.54199 1.5 7.54199L8.68457 7.54199L4.90563 3.73543C4.70744 3.53579 4.7129 3.212 4.9177 3.01915L5.64211 2.33701C5.84074 2.14997 6.15265 2.15669 6.34303 2.35212L12.031 8.19083Z" fill="white"/>
<path d="M16 14.5C16 14.7761 15.7761 15 15.5 15L14.5 15C14.2239 15 14 14.7761 14 14.5L14 2.5C14 2.22386 14.2239 2 14.5 2L15.5 2C15.7761 2 16 2.22386 16 2.5L16 14.5Z" fill="white"/>
</svg>
