<svg width="17" height="17" viewBox="0 0 17 17" fill="none" xmlns="http://www.w3.org/2000/svg">
<path d="M10.2305 3.11356C10.2305 3.55896 10.7689 3.78207 11.0839 3.46719L12.2255 2.32606C12.4208 2.13087 12.7373 2.1309 12.9326 2.32614L14.6739 4.06742C14.8691 4.26265 14.8691 4.57918 14.6739 4.77445L13.5328 5.91605C13.2179 6.23106 13.441 6.76953 13.8864 6.76953H15.5C15.7761 6.76953 16 6.99339 16 7.26953V9.73047C16 10.0066 15.7761 10.2305 15.5 10.2305H13.8864C13.441 10.2305 13.2179 10.7689 13.5328 11.0839L14.6739 12.2255C14.8691 12.4208 14.8691 12.7373 14.6739 12.9326L12.9326 14.6739C12.7373 14.8691 12.4208 14.8691 12.2255 14.6739L11.0839 13.5328C10.7689 13.2179 10.2305 13.441 10.2305 13.8864V15.5C10.2305 15.7761 10.0066 16 9.73047 16H7.26953C6.99339 16 6.76953 15.7761 6.76953 15.5V13.8864C6.76953 13.441 6.23106 13.2179 5.91605 13.5328L4.77445 14.6739C4.57918 14.8691 4.26265 14.8691 4.06742 14.6739L2.32614 12.9326C2.1309 12.7373 2.13087 12.4208 2.32606 12.2255L3.46719 11.0839C3.78207 10.7689 3.55896 10.2305 3.11356 10.2305H1.5C1.22386 10.2305 1 10.0066 1 9.73047V7.26953C1 6.99339 1.22386 6.76953 1.5 6.76953H3.11356C3.55896 6.76953 3.78207 6.23106 3.46719 5.91605L2.32606 4.77445C2.13087 4.57918 2.1309 4.26265 2.32614 4.06742L4.06742 2.32614C4.26265 2.1309 4.57918 2.13087 4.77445 2.32606L5.91605 3.46719C6.23106 3.78207 6.76953 3.55896 6.76953 3.11356V1.5C6.76953 1.22386 6.99339 1 7.26953 1H9.73047C10.0066 1 10.2305 1.22386 10.2305 1.5V3.11356ZM8.5 5C6.567 5 5 6.567 5 8.5C5 10.433 6.567 12 8.5 12C10.433 12 12 10.433 12 8.5C12 6.567 10.433 5 8.5 5Z" fill="white"/>
</svg>
